<svg version="1.1" viewBox="0.0 0.0 32.0 32.0" fill="none" stroke="none" stroke-linecap="square" stroke-miterlimit="10" xmlns:xlink="http://www.w3.org/1999/xlink" xmlns="http://www.w3.org/2000/svg"><clipPath id="p.0"><path d="m0 0l32.0 0l0 32.0l-32.0 0l0 -32.0z" clip-rule="nonzero"/></clipPath><g clip-path="url(#p.0)"><path fill="#000000" fill-opacity="0.0" d="m0 0l32.0 0l0 32.0l-32.0 0z" fill-rule="evenodd"/><path fill="#6d9eeb" d="m0.992126 16.0l0 0c0 -8.28862 6.719254 -15.007874 15.007874 -15.007874l0 0c3.9803352 0 7.7976475 1.5811822 10.612169 4.3957047c2.8145218 2.8145218 4.3957043 6.631834 4.3957043 10.612169l0 0c0 8.28862 -6.7192535 15.007874 -15.007874 15.007874l0 0c-8.28862 0 -15.007874 -6.7192535 -15.007874 -15.007874z" fill-rule="evenodd"/><path stroke="#000000" stroke-width="1.0" stroke-linejoin="round" stroke-linecap="butt" d="m0.992126 16.0l0 0c0 -8.28862 6.719254 -15.007874 15.007874 -15.007874l0 0c3.9803352 0 7.7976475 1.5811822 10.612169 4.3957047c2.8145218 2.8145218 4.3957043 6.631834 4.3957043 10.612169l0 0c0 8.28862 -6.7192535 15.007874 -15.007874 15.007874l0 0c-8.28862 0 -15.007874 -6.7192535 -15.007874 -15.007874z" fill-rule="evenodd"/></g></svg>