<svg version="1.1" viewBox="0.0 0.0 540.0 540.0" fill="none" stroke="none" stroke-linecap="square" stroke-miterlimit="10" xmlns:xlink="http://www.w3.org/1999/xlink" xmlns="http://www.w3.org/2000/svg"><clipPath id="p.0"><path d="m0 0l540.0 0l0 540.0l-540.0 0l0 -540.0z" clip-rule="nonzero"/></clipPath><g clip-path="url(#p.0)"><path fill="#000000" fill-opacity="0.0" d="m0 0l540.0 0l0 540.0l-540.0 0z" fill-rule="evenodd"/><path fill="#6cf5df" d="m0 270.0c0 -149.11688 120.88312 -270.0 270.0 -270.0c71.60846 0 140.284 28.446346 190.91882 79.08117c50.634827 50.63482 79.08118 119.31037 79.08118 190.91882c0 149.11688 -120.88312 270.0 -270.0 270.0c-149.11688 0 -270.0 -120.88312 -270.0 -270.0z" fill-rule="evenodd"/><path fill="#000000" d="m160.48819 487.1078l0 -109.51181c0 -60.48169 49.030106 -109.51181 109.51181 -109.51181c60.48169 0 109.51181 49.03012 109.51181 109.51181l0 109.51181z" fill-rule="evenodd"/><path stroke="#000000" stroke-width="20.611548556430446" stroke-linejoin="round" stroke-linecap="butt" d="m160.48819 487.1078l0 -109.51181c0 -60.48169 49.030106 -109.51181 109.51181 -109.51181c60.48169 0 109.51181 49.03012 109.51181 109.51181l0 109.51181z" fill-rule="evenodd"/><path fill="#000000" d="m181.77394 141.11304c0 -48.722816 39.497665 -88.22047 88.220474 -88.22047c23.397522 0 45.83676 9.294628 62.381287 25.83918c16.544556 16.544548 25.839203 38.983765 25.839203 62.381287c0 48.722824 -39.49765 88.220474 -88.22049 88.220474c-48.72281 0 -88.220474 -39.49765 -88.220474 -88.220474z" fill-rule="evenodd"/><path stroke="#000000" stroke-width="20.611548556430446" stroke-linejoin="round" stroke-linecap="butt" d="m181.77394 141.11304c0 -48.722816 39.497665 -88.22047 88.220474 -88.22047c23.397522 0 45.83676 9.294628 62.381287 25.83918c16.544556 16.544548 25.839203 38.983765 25.839203 62.381287c0 48.722824 -39.49765 88.220474 -88.22049 88.220474c-48.72281 0 -88.220474 -39.49765 -88.220474 -88.220474z" fill-rule="evenodd"/></g></svg>