<svg version="1.1" viewBox="0.0 0.0 540.0 540.0" fill="none" stroke="none" stroke-linecap="square" stroke-miterlimit="10" xmlns:xlink="http://www.w3.org/1999/xlink" xmlns="http://www.w3.org/2000/svg"><clipPath id="p.0"><path d="m0 0l540.0 0l0 540.0l-540.0 0l0 -540.0z" clip-rule="nonzero"/></clipPath><g clip-path="url(#p.0)"><path fill="#000000" fill-opacity="0.0" d="m0 0l540.0 0l0 540.0l-540.0 0z" fill-rule="evenodd"/><path fill="#000000" fill-opacity="0.0" d="m143.05511 521.6706l0 -126.944885c0 -70.10971 56.83516 -126.944855 126.944885 -126.944855c70.10971 0 126.944885 56.835144 126.944885 126.944855l0 126.944885z" fill-rule="evenodd"/><path stroke="#ffffff" stroke-width="23.89238845144357" stroke-linejoin="round" stroke-linecap="butt" d="m143.05511 521.6706l0 -126.944885c0 -70.10971 56.83516 -126.944855 126.944885 -126.944855c70.10971 0 126.944885 56.835144 126.944885 126.944855l0 126.944885z" fill-rule="evenodd"/><path fill="#000000" fill-opacity="0.0" d="m167.72934 120.597115c0 -56.480904 45.78682 -102.267715 102.2677 -102.267715c27.123108 0 53.135284 10.774603 72.31421 29.95352c19.178925 19.17892 29.953522 45.191113 29.953522 72.31419c0 56.480904 -45.786804 102.26771 -102.26773 102.26771c-56.48088 0 -102.2677 -45.786804 -102.2677 -102.26771z" fill-rule="evenodd"/><path stroke="#ffffff" stroke-width="23.89238845144357" stroke-linejoin="round" stroke-linecap="butt" d="m167.72934 120.597115c0 -56.480904 45.78682 -102.267715 102.2677 -102.267715c27.123108 0 53.135284 10.774603 72.31421 29.95352c19.178925 19.17892 29.953522 45.191113 29.953522 72.31419c0 56.480904 -45.786804 102.26771 -102.26773 102.26771c-56.48088 0 -102.2677 -45.786804 -102.2677 -102.26771z" fill-rule="evenodd"/></g></svg>