<svg version="1.1" viewBox="0.0 0.0 540.0 540.0" fill="none" stroke="none" stroke-linecap="square" stroke-miterlimit="10" xmlns:xlink="http://www.w3.org/1999/xlink" xmlns="http://www.w3.org/2000/svg"><clipPath id="p.0"><path d="m0 0l540.0 0l0 540.0l-540.0 0l0 -540.0z" clip-rule="nonzero"/></clipPath><g clip-path="url(#p.0)"><path fill="#000000" fill-opacity="0.0" d="m0 0l540.0 0l0 540.0l-540.0 0z" fill-rule="evenodd"/><path fill="#000000" fill-opacity="0.0" d="m70.81759 505.18365l398.36218 0" fill-rule="evenodd"/><path stroke="#ffffff" stroke-width="24.0" stroke-linejoin="round" stroke-linecap="butt" d="m70.81759 505.18365l398.36218 0" fill-rule="evenodd"/><path fill="#000000" fill-opacity="0.0" d="m82.79179 105.33596l0 393.10236" fill-rule="evenodd"/><path stroke="#ffffff" stroke-width="24.0" stroke-linejoin="round" stroke-linecap="butt" d="m82.79179 105.33596l0 393.10236" fill-rule="evenodd"/><path fill="#000000" fill-opacity="0.0" d="m457.18738 102.85302l0 402.3307" fill-rule="evenodd"/><path stroke="#ffffff" stroke-width="24.0" stroke-linejoin="round" stroke-linecap="butt" d="m457.18738 102.85302l0 402.3307" fill-rule="evenodd"/><path fill="#ffffff" d="m213.6483 91.17787c0 -31.127983 25.234207 -56.3622 56.362198 -56.3622c31.12799 0 56.362213 25.234219 56.362213 56.3622l-28.181122 0c0 -15.563988 -12.617096 -28.181099 -28.181091 -28.181099c-15.563995 0 -28.181107 12.617111 -28.181107 28.181099z" fill-rule="evenodd"/><path fill="#000000" fill-opacity="0.0" d="m126.154854 167.45137l285.22836 0" fill-rule="evenodd"/><path stroke="#ffffff" stroke-width="24.0" stroke-linejoin="round" stroke-linecap="butt" d="m126.154854 167.45137l285.22836 0" fill-rule="evenodd"/><path fill="#000000" fill-opacity="0.0" d="m70.81759 102.85294l398.36218 0" fill-rule="evenodd"/><path stroke="#ffffff" stroke-width="24.0" stroke-linejoin="round" stroke-linecap="butt" d="m70.81759 102.85294l398.36218 0" fill-rule="evenodd"/><path fill="#000000" fill-opacity="0.0" d="m126.156166 237.17053l258.14175 0" fill-rule="evenodd"/><path stroke="#ffffff" stroke-width="24.0" stroke-linejoin="round" stroke-linecap="butt" d="m126.156166 237.17053l258.14175 0" fill-rule="evenodd"/><path fill="#000000" fill-opacity="0.0" d="m126.156166 304.0183l150.70868 0" fill-rule="evenodd"/><path stroke="#ffffff" stroke-width="24.0" stroke-linejoin="round" stroke-linecap="butt" d="m126.156166 304.0183l150.70868 0" fill-rule="evenodd"/><path fill="#000000" fill-opacity="0.0" d="m126.156166 379.9133l59.779533 0" fill-rule="evenodd"/><path stroke="#ffffff" stroke-width="24.0" stroke-linejoin="round" stroke-linecap="butt" d="m126.156166 379.9133l59.779533 0" fill-rule="evenodd"/></g></svg>