<svg version="1.1" viewBox="0.0 0.0 540.0 540.0" fill="none" stroke="none" stroke-linecap="square" stroke-miterlimit="10" xmlns:xlink="http://www.w3.org/1999/xlink" xmlns="http://www.w3.org/2000/svg"><clipPath id="p.0"><path d="m0 0l540.0 0l0 540.0l-540.0 0l0 -540.0z" clip-rule="nonzero"/></clipPath><g clip-path="url(#p.0)"><path fill="#000000" fill-opacity="0.0" d="m0 0l540.0 0l0 540.0l-540.0 0z" fill-rule="evenodd"/><path fill="#000000" fill-opacity="0.0" d="m82.88058 507.02435l376.8819 0" fill-rule="evenodd"/><path stroke="#ffffff" stroke-width="24.0" stroke-linejoin="round" stroke-linecap="butt" d="m82.88058 507.02435l376.8819 0" fill-rule="evenodd"/><path fill="#000000" fill-opacity="0.0" d="m94.89067 507.02435l0 -228.34647" fill-rule="evenodd"/><path stroke="#ffffff" stroke-width="24.0" stroke-linejoin="round" stroke-linecap="butt" d="m94.89067 507.02435l0 -228.34647" fill-rule="evenodd"/><path fill="#000000" fill-opacity="0.0" d="m447.72278 507.02435l0 -228.34647" fill-rule="evenodd"/><path stroke="#ffffff" stroke-width="24.0" stroke-linejoin="round" stroke-linecap="butt" d="m447.72278 507.02435l0 -228.34647" fill-rule="evenodd"/><path fill="#000000" fill-opacity="0.0" d="m94.919945 290.6697l-79.11811 0" fill-rule="evenodd"/><path stroke="#ffffff" stroke-width="24.0" stroke-linejoin="round" stroke-linecap="butt" d="m94.919945 290.6697l-79.11811 0" fill-rule="evenodd"/><path fill="#000000" fill-opacity="0.0" d="m24.30151 287.11923l251.18109 -251.18109" fill-rule="evenodd"/><path stroke="#ffffff" stroke-width="24.0" stroke-linejoin="round" stroke-linecap="butt" d="m24.30151 287.11923l251.18109 -251.18109" fill-rule="evenodd"/><path fill="#000000" fill-opacity="0.0" d="m445.08102 290.6697l79.11813 0" fill-rule="evenodd"/><path stroke="#ffffff" stroke-width="24.0" stroke-linejoin="round" stroke-linecap="butt" d="m445.08102 290.6697l79.11813 0" fill-rule="evenodd"/><path fill="#000000" fill-opacity="0.0" d="m515.69946 287.11923l-254.14172 -254.14172" fill-rule="evenodd"/><path stroke="#ffffff" stroke-width="24.0" stroke-linejoin="round" stroke-linecap="butt" d="m515.69946 287.11923l-254.14172 -254.14172" fill-rule="evenodd"/><path fill="#000000" fill-opacity="0.0" d="m225.38411 507.02435l0 -163.77951" fill-rule="evenodd"/><path stroke="#ffffff" stroke-width="24.0" stroke-linejoin="round" stroke-linecap="butt" d="m225.38411 507.02435l0 -163.77951" fill-rule="evenodd"/><path fill="#000000" fill-opacity="0.0" d="m320.91956 507.02435l0 -163.77951" fill-rule="evenodd"/><path stroke="#ffffff" stroke-width="24.0" stroke-linejoin="round" stroke-linecap="butt" d="m320.91956 507.02435l0 -163.77951" fill-rule="evenodd"/><path fill="#000000" fill-opacity="0.0" d="m324.6509 355.2459l-98.74014 0" fill-rule="evenodd"/><path stroke="#ffffff" stroke-width="24.0" stroke-linejoin="round" stroke-linecap="butt" d="m324.6509 355.2459l-98.74014 0" fill-rule="evenodd"/></g></svg>