<svg version="1.1" viewBox="0.0 0.0 540.0 540.0" fill="none" stroke="none" stroke-linecap="square" stroke-miterlimit="10" xmlns:xlink="http://www.w3.org/1999/xlink" xmlns="http://www.w3.org/2000/svg"><clipPath id="p.0"><path d="m0 0l540.0 0l0 540.0l-540.0 0l0 -540.0z" clip-rule="nonzero"/></clipPath><g clip-path="url(#p.0)"><path fill="#000000" fill-opacity="0.0" d="m0 0l540.0 0l0 540.0l-540.0 0z" fill-rule="evenodd"/><path fill="#000000" fill-opacity="0.0" d="m33.87008 438.39108l472.25195 0" fill-rule="evenodd"/><path stroke="#ffffff" stroke-width="24.0" stroke-linejoin="round" stroke-linecap="butt" d="m33.87008 438.39108l472.25195 0" fill-rule="evenodd"/><path fill="#000000" fill-opacity="0.0" d="m45.850483 438.3918l0 -327.43307" fill-rule="evenodd"/><path stroke="#ffffff" stroke-width="24.0" stroke-linejoin="round" stroke-linecap="butt" d="m45.850483 438.3918l0 -327.43307" fill-rule="evenodd"/><path fill="#000000" fill-opacity="0.0" d="m494.09055 438.3918l0 -257.03937" fill-rule="evenodd"/><path stroke="#ffffff" stroke-width="24.0" stroke-linejoin="round" stroke-linecap="butt" d="m494.09055 438.3918l0 -257.03937" fill-rule="evenodd"/><path fill="#000000" fill-opacity="0.0" d="m266.25592 188.55118l239.874 0" fill-rule="evenodd"/><path stroke="#ffffff" stroke-width="24.0" stroke-linejoin="round" stroke-linecap="butt" d="m266.25592 188.55118l239.874 0" fill-rule="evenodd"/><path fill="#000000" fill-opacity="0.0" d="m33.87008 105.149605l159.08661 0" fill-rule="evenodd"/><path stroke="#ffffff" stroke-width="24.0" stroke-linejoin="round" stroke-linecap="butt" d="m33.87008 105.149605l159.08661 0" fill-rule="evenodd"/><path fill="#000000" fill-opacity="0.0" d="m184.43388 101.60843l90.267715 90.267715" fill-rule="evenodd"/><path stroke="#ffffff" stroke-width="24.0" stroke-linejoin="round" stroke-linecap="butt" d="m184.43388 101.60843l90.267715 90.267715" fill-rule="evenodd"/></g></svg>