<svg version="1.1" viewBox="0.0 0.0 540.0 540.0" fill="none" stroke="none" stroke-linecap="square" stroke-miterlimit="10" xmlns:xlink="http://www.w3.org/1999/xlink" xmlns="http://www.w3.org/2000/svg"><clipPath id="p.0"><path d="m0 0l540.0 0l0 540.0l-540.0 0l0 -540.0z" clip-rule="nonzero"/></clipPath><g clip-path="url(#p.0)"><path fill="#000000" fill-opacity="0.0" d="m0 0l540.0 0l0 540.0l-540.0 0z" fill-rule="evenodd"/><path fill="#000000" fill-opacity="0.0" d="m55.47113 480.9462l172.88188 -172.8819" fill-rule="evenodd"/><path stroke="#ffffff" stroke-width="24.0" stroke-linejoin="round" stroke-linecap="butt" d="m55.47113 480.9462l172.88188 -172.8819" fill-rule="evenodd"/><path fill="#000000" fill-opacity="0.0" d="m190.00932 206.31422c0 -81.32936 65.93048 -147.25984 147.25984 -147.25984c39.055756 0 76.51187 15.514832 104.12845 43.13141c27.616577 27.616577 43.13141 65.07269 43.13141 104.12843c0 81.32936 -65.93048 147.25984 -147.25986 147.25984c-81.32936 0 -147.25984 -65.93048 -147.25984 -147.25984z" fill-rule="evenodd"/><path stroke="#ffffff" stroke-width="23.89238845144357" stroke-linejoin="round" stroke-linecap="butt" d="m190.00932 206.31422c0 -81.32936 65.93048 -147.25984 147.25984 -147.25984c39.055756 0 76.51187 15.514832 104.12845 43.13141c27.616577 27.616577 43.13141 65.07269 43.13141 104.12843c0 81.32936 -65.93048 147.25984 -147.25986 147.25984c-81.32936 0 -147.25984 -65.93048 -147.25984 -147.25984z" fill-rule="evenodd"/></g></svg>